<svg xmlns="http://www.w3.org/2000/svg" width="9" height="12" viewBox="0 0 9 12"><path fill="#000000" fill-rule="evenodd" d="M9,3.42857746 C9,2.47714888 8.199,1.71429174 7.2,1.71429174 C6.38694194,1.71224578 5.67412749,2.23130264 5.46305602,2.97909871 C5.25198454,3.72689478 5.59545317,4.51637741 6.3,4.90286317 L6.3,5.16000603 C6.282,5.60572031 6.093,6.00000603 5.733,6.34286317 C5.373,6.68572031 4.959,6.86572031 4.491,6.88286317 C3.744,6.90000603 3.159,7.02000603 2.691,7.26857746 L2.691,3.18857746 C3.39554683,2.8020917 3.73901546,2.01260907 3.52794398,1.26481299 C3.31687251,0.517016923 2.60405806,-0.00203993415 1.791,6.02687385e-06 C0.792,6.02687385e-06 9.99200722e-17,0.76286317 9.99200722e-17,1.71429174 C0.00385823026,2.32305356 0.346419835,2.88420209 0.9,3.18857746 L0.9,8.8114346 C0.369,9.1114346 0,9.66000603 0,10.2857203 C0,11.2371489 0.801,12.000006 1.8,12.000006 C2.799,12.000006 3.6,11.2371489 3.6,10.2857203 C3.6,9.8314346 3.42,9.42857746 3.123,9.12000603 C3.204,9.06857746 3.555,8.76857746 3.654,8.71714888 C3.879,8.62286317 4.158,8.5714346 4.5,8.5714346 C5.445,8.52857746 6.255,8.18572031 6.975,7.50000603 C7.695,6.81429174 8.055,5.80286317 8.1,4.9114346 L8.082,4.9114346 C8.631,4.60286317 9,4.05429174 9,3.42857746 L9,3.42857746 Z M1.8,0.685720313 C2.394,0.685720313 2.88,1.15714888 2.88,1.71429174 C2.88,2.2714346 2.385,2.74286317 1.8,2.74286317 C1.215,2.74286317 0.72,2.2714346 0.72,1.71429174 C0.72,1.15714888 1.215,0.685720313 1.8,0.685720313 L1.8,0.685720313 Z M1.8,11.3228632 C1.206,11.3228632 0.72,10.8514346 0.72,10.2942917 C0.72,9.73714888 1.215,9.26572031 1.8,9.26572031 C2.385,9.26572031 2.88,9.73714888 2.88,10.2942917 C2.88,10.8514346 2.385,11.3228632 1.8,11.3228632 L1.8,11.3228632 Z M7.2,4.46572031 C6.606,4.46572031 6.12,3.99429174 6.12,3.43714888 C6.12,2.88000603 6.615,2.40857746 7.2,2.40857746 C7.785,2.40857746 8.28,2.88000603 8.28,3.43714888 C8.28,3.99429174 7.785,4.46572031 7.2,4.46572031 L7.2,4.46572031 Z"/></svg>
