<svg xmlns="http://www.w3.org/2000/svg" width="12" height="12" viewBox="0 0 12 12"><path fill="#000000" fill-rule="evenodd" d="M5.14285714,6.85714286 L2.57142857,6.85714286 L2.57142857,5.14285714 L5.14285714,5.14285714 L5.14285714,2.57142857 L9.42857143,6 L5.14285714,9.42857143 L5.14285714,6.85714286 L5.14285714,6.85714286 Z M12,0.857142857 L12,11.1428571 C12,11.6142857 11.6142857,12 11.1428571,12 L0.857142857,12 C0.385714286,12 0,11.6142857 0,11.1428571 L0,0.857142857 C0,0.385714286 0.385714286,0 0.857142857,0 L11.1428571,0 C11.6142857,0 12,0.385714286 12,0.857142857 L12,0.857142857 Z M11.1428571,0.857142857 L0.857142857,0.857142857 L0.857142857,11.1428571 L11.1428571,11.1428571 L11.1428571,0.857142857 L11.1428571,0.857142857 Z" transform="matrix(0 -1 -1 0 12 12)"/></svg>