<svg xmlns="http://www.w3.org/2000/svg" width="12" height="12" viewBox="0 0 12 12"><path fill="#000000" fill-rule="evenodd" d="M11.1428571,0 L0.857142857,0 C0.385714286,0 0,0.385714286 0,0.857142857 L0,11.1428571 C0,11.6142857 0.385714286,12 0.857142857,12 L11.1428571,12 C11.6142857,12 12,11.6142857 12,11.1428571 L12,0.857142857 C12,0.385714286 11.6142857,0 11.1428571,0 L11.1428571,0 Z M11.1428571,11.1428571 L0.857142857,11.1428571 L0.857142857,0.857142857 L11.1428571,0.857142857 L11.1428571,11.1428571 L11.1428571,11.1428571 Z M3.42857143,6 C3.42857143,4.57714286 4.57714286,3.42857143 6,3.42857143 C7.42285714,3.42857143 8.57142857,4.57714286 8.57142857,6 C8.57142857,7.42285714 7.42285714,8.57142857 6,8.57142857 C4.57714286,8.57142857 3.42857143,7.42285714 3.42857143,6 L3.42857143,6 Z"/></svg>